<mxfile host="app.diagrams.net" agent="Mozilla/5.0 (Windows NT 10.0; Win64; x64) AppleWebKit/537.36 (KHTML, like Gecko) Chrome/135.0.0.0 Safari/537.36" version="26.2.14">
  <diagram name="Page-1" id="rnVOFUPjEUQOpSUN-gVg">
    <mxGraphModel dx="786" dy="1517" grid="1" gridSize="10" guides="1" tooltips="1" connect="1" arrows="1" fold="1" page="1" pageScale="1" pageWidth="850" pageHeight="1100" math="0" shadow="0">
      <root>
        <mxCell id="0" />
        <mxCell id="1" parent="0" />
        <mxCell id="SmcuI3v-jIgY7P2fy-Gi-2" value="" style="rounded=1;whiteSpace=wrap;html=1;" vertex="1" parent="1">
          <mxGeometry x="40" y="80" width="380" height="220" as="geometry" />
        </mxCell>
        <mxCell id="SmcuI3v-jIgY7P2fy-Gi-1" value="Make changes to data in DB" style="rounded=0;whiteSpace=wrap;html=1;" vertex="1" parent="1">
          <mxGeometry x="110" y="120" width="240" height="40" as="geometry" />
        </mxCell>
        <mxCell id="SmcuI3v-jIgY7P2fy-Gi-8" style="edgeStyle=orthogonalEdgeStyle;rounded=0;orthogonalLoop=1;jettySize=auto;html=1;" edge="1" parent="1" source="SmcuI3v-jIgY7P2fy-Gi-3" target="SmcuI3v-jIgY7P2fy-Gi-5">
          <mxGeometry relative="1" as="geometry" />
        </mxCell>
        <mxCell id="SmcuI3v-jIgY7P2fy-Gi-3" value="Publish message(s) to Queue" style="rounded=0;whiteSpace=wrap;html=1;" vertex="1" parent="1">
          <mxGeometry x="110" y="200" width="240" height="40" as="geometry" />
        </mxCell>
        <mxCell id="SmcuI3v-jIgY7P2fy-Gi-4" value="DB" style="shape=cylinder3;whiteSpace=wrap;html=1;boundedLbl=1;backgroundOutline=1;size=15;" vertex="1" parent="1">
          <mxGeometry x="670" y="60" width="60" height="80" as="geometry" />
        </mxCell>
        <mxCell id="SmcuI3v-jIgY7P2fy-Gi-5" value="RabbitMQ" style="ellipse;shape=cloud;whiteSpace=wrap;html=1;" vertex="1" parent="1">
          <mxGeometry x="640" y="210" width="120" height="80" as="geometry" />
        </mxCell>
        <mxCell id="SmcuI3v-jIgY7P2fy-Gi-7" style="edgeStyle=orthogonalEdgeStyle;rounded=0;orthogonalLoop=1;jettySize=auto;html=1;exitX=1;exitY=0.5;exitDx=0;exitDy=0;entryX=0;entryY=0.5;entryDx=0;entryDy=0;entryPerimeter=0;" edge="1" parent="1" source="SmcuI3v-jIgY7P2fy-Gi-1" target="SmcuI3v-jIgY7P2fy-Gi-4">
          <mxGeometry relative="1" as="geometry" />
        </mxCell>
        <mxCell id="SmcuI3v-jIgY7P2fy-Gi-21" style="edgeStyle=orthogonalEdgeStyle;rounded=0;orthogonalLoop=1;jettySize=auto;html=1;" edge="1" parent="1" source="SmcuI3v-jIgY7P2fy-Gi-9">
          <mxGeometry relative="1" as="geometry">
            <mxPoint x="660" y="550" as="targetPoint" />
          </mxGeometry>
        </mxCell>
        <mxCell id="SmcuI3v-jIgY7P2fy-Gi-9" value="" style="rounded=1;whiteSpace=wrap;html=1;" vertex="1" parent="1">
          <mxGeometry x="40" y="500" width="380" height="220" as="geometry" />
        </mxCell>
        <mxCell id="SmcuI3v-jIgY7P2fy-Gi-10" value="Make changes to data in DB" style="rounded=0;whiteSpace=wrap;html=1;" vertex="1" parent="1">
          <mxGeometry x="100" y="540" width="240" height="40" as="geometry" />
        </mxCell>
        <mxCell id="SmcuI3v-jIgY7P2fy-Gi-11" value="Persist message(s) in Events table" style="rounded=0;whiteSpace=wrap;html=1;" vertex="1" parent="1">
          <mxGeometry x="100" y="620" width="240" height="40" as="geometry" />
        </mxCell>
        <mxCell id="SmcuI3v-jIgY7P2fy-Gi-12" value="" style="rounded=1;whiteSpace=wrap;html=1;" vertex="1" parent="1">
          <mxGeometry x="40" y="750" width="380" height="220" as="geometry" />
        </mxCell>
        <mxCell id="SmcuI3v-jIgY7P2fy-Gi-13" value="Read Events from DB" style="rounded=0;whiteSpace=wrap;html=1;" vertex="1" parent="1">
          <mxGeometry x="100" y="830" width="240" height="40" as="geometry" />
        </mxCell>
        <mxCell id="SmcuI3v-jIgY7P2fy-Gi-19" style="edgeStyle=orthogonalEdgeStyle;rounded=0;orthogonalLoop=1;jettySize=auto;html=1;" edge="1" parent="1" source="SmcuI3v-jIgY7P2fy-Gi-14" target="SmcuI3v-jIgY7P2fy-Gi-17">
          <mxGeometry relative="1" as="geometry" />
        </mxCell>
        <mxCell id="SmcuI3v-jIgY7P2fy-Gi-14" value="Publish message(s) to Queue" style="rounded=0;whiteSpace=wrap;html=1;" vertex="1" parent="1">
          <mxGeometry x="100" y="900" width="240" height="40" as="geometry" />
        </mxCell>
        <mxCell id="SmcuI3v-jIgY7P2fy-Gi-15" value="&lt;b&gt;&lt;font style=&quot;font-size: 15px;&quot;&gt;Scheduled Job&lt;/font&gt;&lt;/b&gt;" style="text;html=1;align=center;verticalAlign=middle;whiteSpace=wrap;rounded=0;" vertex="1" parent="1">
          <mxGeometry x="130" y="770" width="190" height="30" as="geometry" />
        </mxCell>
        <mxCell id="SmcuI3v-jIgY7P2fy-Gi-16" value="DB" style="shape=cylinder3;whiteSpace=wrap;html=1;boundedLbl=1;backgroundOutline=1;size=15;" vertex="1" parent="1">
          <mxGeometry x="670" y="500" width="60" height="80" as="geometry" />
        </mxCell>
        <mxCell id="SmcuI3v-jIgY7P2fy-Gi-17" value="RabbitMQ" style="ellipse;shape=cloud;whiteSpace=wrap;html=1;" vertex="1" parent="1">
          <mxGeometry x="640" y="920" width="120" height="80" as="geometry" />
        </mxCell>
        <mxCell id="SmcuI3v-jIgY7P2fy-Gi-20" style="edgeStyle=orthogonalEdgeStyle;rounded=0;orthogonalLoop=1;jettySize=auto;html=1;" edge="1" parent="1" source="SmcuI3v-jIgY7P2fy-Gi-13">
          <mxGeometry relative="1" as="geometry">
            <mxPoint x="679" y="590" as="targetPoint" />
          </mxGeometry>
        </mxCell>
        <mxCell id="SmcuI3v-jIgY7P2fy-Gi-26" style="edgeStyle=orthogonalEdgeStyle;rounded=0;orthogonalLoop=1;jettySize=auto;html=1;" edge="1" parent="1" source="SmcuI3v-jIgY7P2fy-Gi-23">
          <mxGeometry relative="1" as="geometry">
            <mxPoint x="710" y="1010" as="targetPoint" />
          </mxGeometry>
        </mxCell>
        <mxCell id="SmcuI3v-jIgY7P2fy-Gi-23" value="Consumer" style="shape=hexagon;perimeter=hexagonPerimeter2;whiteSpace=wrap;html=1;fixedSize=1;" vertex="1" parent="1">
          <mxGeometry x="560" y="1100" width="100" height="60" as="geometry" />
        </mxCell>
        <mxCell id="SmcuI3v-jIgY7P2fy-Gi-25" value="&lt;font style=&quot;font-size: 13px;&quot;&gt;NOTE: Consumer should be Idempotent&lt;/font&gt;.&amp;nbsp;&lt;div&gt;i.e. should be able to handle duplicate messages.&lt;/div&gt;" style="text;html=1;align=center;verticalAlign=middle;whiteSpace=wrap;rounded=0;" vertex="1" parent="1">
          <mxGeometry x="270" y="1095" width="250" height="65" as="geometry" />
        </mxCell>
        <mxCell id="SmcuI3v-jIgY7P2fy-Gi-27" value="&lt;span style=&quot;font-family: -apple-system, BlinkMacSystemFont, &amp;quot;Segoe UI&amp;quot;, &amp;quot;Noto Sans&amp;quot;, Helvetica, Arial, sans-serif, &amp;quot;Apple Color Emoji&amp;quot;, &amp;quot;Segoe UI Emoji&amp;quot;; text-align: left;&quot;&gt;&lt;font style=&quot;color: light-dark(rgb(240, 246, 252), rgb(255, 255, 255)); font-size: 15px;&quot;&gt;&lt;b&gt;Implementing database operations and sending a message as a single atomic operation.&lt;/b&gt;&lt;/font&gt;&lt;/span&gt;" style="text;html=1;align=center;verticalAlign=middle;whiteSpace=wrap;rounded=0;" vertex="1" parent="1">
          <mxGeometry x="120" y="-20" width="560" height="60" as="geometry" />
        </mxCell>
        <mxCell id="SmcuI3v-jIgY7P2fy-Gi-28" value="&lt;span style=&quot;font-family: -apple-system, BlinkMacSystemFont, &amp;quot;Segoe UI&amp;quot;, &amp;quot;Noto Sans&amp;quot;, Helvetica, Arial, sans-serif, &amp;quot;Apple Color Emoji&amp;quot;, &amp;quot;Segoe UI Emoji&amp;quot;; text-align: left;&quot;&gt;&lt;font style=&quot;color: light-dark(rgb(240, 246, 252), rgb(255, 255, 255)); font-size: 15px;&quot;&gt;&lt;b&gt;Solving the problem using Outbox Pattern.&lt;/b&gt;&lt;/font&gt;&lt;/span&gt;" style="text;html=1;align=center;verticalAlign=middle;whiteSpace=wrap;rounded=0;" vertex="1" parent="1">
          <mxGeometry x="120" y="410" width="560" height="60" as="geometry" />
        </mxCell>
      </root>
    </mxGraphModel>
  </diagram>
</mxfile>
